<svg id="Calque_1" data-name="Calque 1" xmlns="http://www.w3.org/2000/svg" viewBox="0 0 600 600"><defs><style>.cls-1{fill:#fff;}</style></defs><title>coride-b</title><path class="cls-1" d="M226.58,318.93c.15-28-17.35-53.7-52.36-53.7s-52.36,25.52-52.36,53.4c0,27.44,17.5,53.85,52.36,53.85S226.43,346.22,226.58,318.93Zm-52.36,46.13c-29.52,0-44.35-22.84-44.5-46.28-.15-24.47,14.69-46.13,44.5-46.13s44.65,22.1,44.65,46.13C218.87,342.22,203.89,365.06,174.22,365.06ZM291.57,539.64a6.57,6.57,0,1,0,6.57,6.57A6.57,6.57,0,0,0,291.57,539.64ZM331.8,234.55a2.47,2.47,0,1,0,2.6,2.33A2.48,2.48,0,0,0,331.8,234.55Zm.2,3.61a1.14,1.14,0,0,1-.12-2.28,1.13,1.13,0,0,1,1.2,1.07A1.15,1.15,0,0,1,332,238.16ZM310.67,509.38c-1.06-.7-2.11-1.44-3.13-2.22a62.09,62.09,0,0,1-12.23-12.43,55,55,0,0,1-7.83-15,51.63,51.63,0,0,1-2.66-16.86A54.47,54.47,0,0,1,287.64,446a51.79,51.79,0,0,1,7.88-15,46.89,46.89,0,0,1,13-11.74,48.14,48.14,0,0,1,15.92-6,50.38,50.38,0,0,1,17.62-.16,43.47,43.47,0,0,1,10.28,3.07c-4.63-7.56-12.16-13.21-20.42-16.54-9.23-3.72-19.34-4.77-29.28-4.64-24,.31-47.62,7.26-69.63,17-14.12,6.23-28,13.7-43.23,16.2a48.85,48.85,0,0,1-32.65-6.46,155.68,155.68,0,0,0,30.4,43,238.7,238.7,0,0,0,19.55,16.56,153.73,153.73,0,0,0,77.38,28.31l23.42.12C308.82,509.54,309.75,509.47,310.67,509.38Zm174.17-105.5-.52-.26C458,477.81,389.84,532.38,308.37,538.9a.08.08,0,0,1,0,0l-1.39.11a17.08,17.08,0,0,1,.44,13.73A217.82,217.82,0,0,0,505.13,383.19H491A199.68,199.68,0,0,1,484.84,403.88Zm36-57.44V330.71H570V306.83h-49.1V292h52.06V267.38h-81V371.21H575V346.44Zm-221,87.31a1.56,1.56,0,0,0-.16.2Zm-2.47,54.89c.72,1.16,1.49,2.28,2.29,3.38l.62.82v0l.25.32c.43.53.86,1.06,1.3,1.58a58.88,58.88,0,0,0,5.65,5.74c.49.44,1,.87,1.51,1.29l.85.69.36.28c1.06.81,2.15,1.59,3.27,2.33a56.49,56.49,0,0,0,5.69,3.3,154.88,154.88,0,0,0,100.43-58.88c-22.16,15.77-53.3,18.78-77.66,6.34-8.12-4.14-16.22-11.28-15.88-20.39.22-6.1,4.48-11.59,9.91-14.38a24.49,24.49,0,0,1,7.88-2.4c-1-.24-2-.45-2.95-.62l-1.09-.18a1.68,1.68,0,0,1-.45-.06c-.64-.08-1.28-.14-1.92-.19a46.33,46.33,0,0,0-8.16.07l-1,.11-.42.05c-.68.1-1.35.21-2,.33-1.33.25-2.66.55-4,.91s-2.59.78-3.86,1.25l-1,.4-.45.18h0c-.6.25-1.18.52-1.77.8a44,44,0,0,0-7,4.2l-.44.33h0l-.72.57c-.53.43-1,.88-1.56,1.34-1,.91-1.95,1.85-2.87,2.84-.46.5-.91,1-1.35,1.54-.22.26-.44.52-.65.79l-.3.37h0c-.79,1.06-1.56,2.14-2.27,3.25a50.85,50.85,0,0,0-3.76,7.11l0,.1-.18.44c-.12.3-.24.6-.35.9-.24.64-.47,1.28-.69,1.93-.43,1.28-.8,2.58-1.13,3.89s-.61,2.63-.83,4c-.06.34-.11.67-.16,1l-.06.39a.28.28,0,0,1,0,.09q-.12,1-.21,2a52.15,52.15,0,0,0-.06,8.1c0,.68.11,1.37.19,2.05l.06.48a2.26,2.26,0,0,1,.07.53l.06.41c.22,1.36.49,2.7.82,4s.7,2.59,1.13,3.87c.21.62.43,1.24.67,1.86.12.34.26.68.39,1,0,.09.08.18.11.27a.93.93,0,0,1-.05-.13,1.73,1.73,0,0,0,.1.24l0-.06,0,.07h0l0,.06,0,.05-.05-.1h0A52.75,52.75,0,0,0,297.38,488.64Zm99.06-356.93.68,3.59,10.9-2.07-7.76,11.42A219.67,219.67,0,0,0,380,134.8a215.71,215.71,0,0,0-69.64-16.6,17.14,17.14,0,0,1-1,13.69,204.28,204.28,0,0,1,159.4,96.26c3-2.93,6.61-6.19,10.49-9.3a217.58,217.58,0,0,0-15-20.8l11-15.9,1.39,7.29,2.4-.46-1.84-9.69,2.18-3.2,1.38,7.29,2.41-.46-1.85-9.69,2.18-3.21,1.39,7.29,2.4-.46-1.85-9.69,2.18-3.2,1.39,7.29,2.4-.46-1.94-10.19h0a1.2,1.2,0,0,0-1.37-1h-.05l-10.19,1.94.46,2.4,7.29-1.39-2.18,3.21-9.69,1.85.46,2.4,7.29-1.39-2.18,3.2-9.69,1.85.45,2.4,7.29-1.39-2.18,3.21-9.69,1.85.46,2.4,7.29-1.39-8.18,12c-1,1.35-1.71,2.47-2.28,3.4q-6.37-7.64-13.47-14.75l-2.75-2.69,20.18-29.69,2.68,14.06,4.63-.88-3.56-18.7,4.2-6.18,2.69,14.06,4.63-.88-3.57-18.7,4.21-6.18,2.68,14.06,4.63-.88-3.56-18.7,4.2-6.19,2.68,14.07,4.64-.89-3.75-19.65h0a2.28,2.28,0,0,0-2.63-1.89l-.1,0-19.66,3.74.88,4.64,14.07-2.69-4.2,6.19-18.7,3.56.88,4.64L478.63,123l-4.21,6.18-18.69,3.57.88,4.63,14.06-2.68-4.2,6.18-18.7,3.57.89,4.63,14.06-2.68L443,175.5a216.55,216.55,0,0,0-19.77-16.26l6.26-9.22,1.72,9,3-.57-2.29-12,2.7-4,1.72,9,3-.56L437,139l2.69-4,1.72,9,3-.57-2.28-12,2.69-4,1.72,9,3-.57L447,123.38h0a1.47,1.47,0,0,0-1.69-1.21h-.06l-12.6,2.4.57,3,9-1.72-2.69,4-12,2.29.57,3,9-1.72-2.7,4-12,2.28.57,3,9-1.72-2.69,4-12,2.28.56,3,9-1.72-6.22,9.16q-8.37-5.92-17.28-11L411,135.28l2.08,10.9,3.59-.68L414,131l3.26-4.8,2.08,10.9,3.59-.68-2.77-14.49,3.26-4.8,2.08,10.9,3.59-.68-2.76-14.49,3.26-4.79L431.61,119l3.59-.68-2.9-15.23h0a1.78,1.78,0,0,0-2-1.47l-.08,0-15.23,2.9.68,3.59,10.9-2.08-3.26,4.8-14.48,2.76.68,3.59,10.9-2.08-3.26,4.79-14.49,2.77.69,3.59,10.9-2.08L410.93,129Zm-96.56,302h0C300,433.61,299.93,433.64,299.88,433.7ZM186.65,407.8a3.52,3.52,0,0,1,.31-.35c.7-.49,1.38-.94,1.95-1.31.85-.33,1.73-.46,2.66-.72,1.79-.5,3.19-1.72,5.72-3.93s.26-1.23-3.2.66c-3,1.62-3.58,2-5.52,2.91-.32.13-.69.29-1.13.5a7.68,7.68,0,0,0-1,.55,20.23,20.23,0,0,0-5,4.81,7.3,7.3,0,0,1-2.46-.83,10.18,10.18,0,0,1-3.51-5.07c-.32-1.54-3-4.09-8-6.17a47.59,47.59,0,0,1-6.82-3.89c-4.32-2.79-3.19-.43-2.39,1.14s5.58,5,8.31,6.52,4,4.59,5.06,6.41,3.59,3.05,4.35,3.48-.56,1.29-1.36,2.29a10.4,10.4,0,0,1-2.93,2c.6.72,4.26,1.22,4.29.72s1-.07,3.3,0,3.39-3,3.52-3.73.35-.76,2.2-1,0-1.65-.87-2.15S185.12,409.65,186.65,407.8Zm120.62,18.51a1.09,1.09,0,0,0-.17.13ZM205.64,392.58s-2.07-1.55-3-1.63-4.29,1.63-4.45-.94.16-3.93-4.76-5.3a18,18,0,0,0-10.64,0s7.15.51,8.9,5,4,5,0,5.94-4,1.35-4,1.35,7.93.44,10.47,0,2.39-1.47,4.29-2.16A8.15,8.15,0,0,0,205.64,392.58Zm92.49-268.35a6.57,6.57,0,1,0-6.56,6.57A6.56,6.56,0,0,0,298.13,124.23ZM228,240.62a2.47,2.47,0,1,0,2.6,2.33A2.47,2.47,0,0,0,228,240.62Zm.2,3.61a1.15,1.15,0,1,1,1.08-1.21A1.16,1.16,0,0,1,228.19,244.23Zm161,208a1.91,1.91,0,0,0,1.91-1.91v-5.17a1.9,1.9,0,0,1,1.91-1.91h5.17a1.92,1.92,0,0,0,0-3.83H393a1.9,1.9,0,0,1-1.91-1.91v-5.17a1.92,1.92,0,0,0-3.83,0v5.17a1.9,1.9,0,0,1-1.91,1.91h-5.17a1.92,1.92,0,0,0,0,3.83h5.17a1.9,1.9,0,0,1,1.91,1.91v5.17A1.91,1.91,0,0,0,389.14,452.27Zm-14.67-16a2.57,2.57,0,0,0,2.57-2.57v-7a2.57,2.57,0,0,1,2.57-2.57h6.95a2.57,2.57,0,1,0,0-5.14h-6.95a2.57,2.57,0,0,1-2.57-2.57v-7a2.57,2.57,0,1,0-5.14,0v7a2.57,2.57,0,0,1-2.57,2.57h-7a2.57,2.57,0,0,0,0,5.14h7a2.57,2.57,0,0,1,2.57,2.57v7A2.57,2.57,0,0,0,374.47,436.22ZM280.74,215.94l-.22-3.84-16.3.9.21,3.84Zm-53,20.53a6.63,6.63,0,1,0,7,6.25A6.64,6.64,0,0,0,227.76,236.47Zm.66,11.91a5.3,5.3,0,1,1,5-5.59A5.31,5.31,0,0,1,228.42,248.38ZM287.1,337h10.23l24.18,33.67H353.7v.51h29.22V267.38H353.7V368.72l-26.85-34.81c17.5-7.71,21.95-18.54,21.95-31.3,0-17-11.44-32.67-33.52-35.34a253.22,253.22,0,0,1-44.38,5.6c-2.34.08-4.71.12-7,.12h0q-3.08,0-6.14-.09v97.8H287.1Zm0-46.73h21.36c7.71,0,11.42,6.38,11.42,12.91,0,6.23-3.41,12-11.13,12H287.1Zm-47.89-23.81A187.58,187.58,0,0,0,270.73,268c26.77-.92,53.06-6.67,78.42-15.08a526.45,526.45,0,0,0,73.58-31c3-1.53,6-3.08,8.91-4.72,1.53-.85.5-3.53-1.21-2.89C417.82,219,405.59,224.68,393.21,230s-24.91,10.39-37.63,14.87c-4.17,1.47-8.38,2.87-12.6,4.2A16.38,16.38,0,0,0,348.29,237c3.26-.06,9.41-.54,13.92-3.17H366l7-.16a3,3,0,0,0,2.86-3.1l-.26-4.54a2.89,2.89,0,0,0-1.12-2.15l-2.15-1.68,0,0a2.92,2.92,0,0,0,.88-2l.19-3.85a2.92,2.92,0,0,0-1.19-2.51l.14-2.18c1.11-1.29,2.72-4.46,0-10.6a2.79,2.79,0,0,0-.61-.87L345.58,174l-4.43-4.51c-.3-.3-.62-.59-.95-.86a6.26,6.26,0,0,0,4.29-5.81,930.33,930.33,0,0,0-125.43,6.48q-2-4.12-4-8.25a1.89,1.89,0,0,0-.67-.76l-.05,0a1.9,1.9,0,0,0-2.85,2.1c.72,2.54,1.43,5.07,2.14,7.61l-3.38.43c-.57-1.59-1.14-3.19-1.72-4.78a1.9,1.9,0,0,0-.76-1l-.72-.45a1.89,1.89,0,0,0-2.89,1.85c.22,1.68.45,3.37.68,5.06l-2.89.39a3.1,3.1,0,0,0,.51,6.18c-4.17,7.44-12.14,22.63-13.38,32.17a42.47,42.47,0,0,0,2.82,21.45l-3.28,3.08a3,3,0,0,0-.92,2.3l.21,3.8a2.94,2.94,0,0,0,3.09,2.76l1.94-.1c.35,1.38,1.68,2.83,5.32,3.56a126.6,126.6,0,0,0,14.38,1.6,16.29,16.29,0,0,0,4.37,6.76c-5.74-1.64-11.42-3.5-17.11-5.44-12.19-4.15-24.45-8.25-37.3-9.71a78.12,78.12,0,0,0-30.2,2.6,39.37,39.37,0,0,0,2.51,6.14A72.35,72.35,0,0,1,157,246.08c12.61.57,24.8,4.4,36.68,8.38,12.29,4.12,24.5,8.37,37.28,10.73l.39.07-6,22.46h6.53Zm38.11-4.86a191.71,191.71,0,0,1-39.84-1.9c-1.68-.27-3.35-.56-5-.89a16.37,16.37,0,0,0,12-16.22l23.17-1.06,3.46,3.91a2.9,2.9,0,0,0,2.36,1l16.42-.91a3,3,0,0,0,1.73-.68l4.16-3.5,20.14-1.12A16.49,16.49,0,0,0,329,253.09,253.72,253.72,0,0,1,277.32,261.63Zm-32-29.1,72.43-4,.28,0a16.4,16.4,0,0,0-2.25,6.24L257,238l-8.83.4Zm74.3-6.19a4.09,4.09,0,0,1,.22-.39c-.05.1-.09.2-.13.29Zm13,21.81a11.15,11.15,0,0,1-1.24-22.26l.63,0a11.15,11.15,0,0,1,.61,22.28ZM365.77,225l0,0,.23,0ZM362,198a4.33,4.33,0,0,1,3.26,1.24l2.89,2.88a5,5,0,0,1,.89,1.21,7.29,7.29,0,0,0-.51,7l0,.45s0,.07,0,.11l-.2,3.3a3,3,0,0,0,.49,1.82,5.84,5.84,0,0,0-1.29,2.29,5.55,5.55,0,0,0,0,3.05l-4.37.24-1.31-23.62Zm-1.83,32.27-.18.1-10.19.57-1.84-5.08,11.93-.66Zm-.47-8.45-13.27.74a6.76,6.76,0,0,0-6.43-4.7h-.37l-12.73.71A13.41,13.41,0,0,1,313,207.5L358.73,205Zm-44.81-41,3.68-2.36,24-1.33,1,17.81-26.15,1.45a7,7,0,0,1-2.8-5.24l-.49-8.84A1.66,1.66,0,0,1,314.85,180.89Zm43.51,17.35.18,3.34-45.82,2.54-.19-3.34Zm-56.54-17.08.82,11.6a3.4,3.4,0,0,1-3.21,3.65l-9.73.54-.84-15.08Zm-14.28.79.84,15.07-13.54.75L274,182.7Zm-24,1.33,9.16-.51.83,15.08-8.52.47a4.6,4.6,0,0,1-4.84-4.34l-.36-6.53A4,4,0,0,1,263.52,183.28ZM237.11,183l14.34-.8-.18,15.81-15,.83Zm-24.3,14.33,4-13.21,16.93-.93-.82,15.84-18,1a2.07,2.07,0,0,1-1.76-.79A2.1,2.1,0,0,1,212.81,197.37Zm-19.74,13h0a28.14,28.14,0,0,1,.59-3L309.15,201l.19,3.34L193,210.76C193,210.63,193.06,210.5,193.07,210.37ZM216,226.67a18.46,18.46,0,0,0-3.1,3.33l-16.79.93a2.32,2.32,0,0,0-.19-.58,37.69,37.69,0,0,1-3.11-16.19l116.82-6.47A16.77,16.77,0,0,0,320.24,221a9.93,9.93,0,0,0-3.86,4.25l-73.12,4.05a17.6,17.6,0,0,0-14.91-6.8l-1.92.11A17.88,17.88,0,0,0,216,226.67Zm12.78,27.54A11.14,11.14,0,0,1,217,243.7,11.15,11.15,0,0,1,227.51,232l.63,0a11.17,11.17,0,0,1,11.11,10.53A11.15,11.15,0,0,1,228.74,254.21Zm-34.18-131.3a1.89,1.89,0,0,0,.64.23,2,2,0,0,0,2.05-1l11.38-20.54,2.21,5.52L217,98.35l5.76,12.71,3.26-13.18,7.27,12a2,2,0,0,0,3.43-.08L256.6,73.31,259,85.78l5.24-13.27,4.58,7.65,5.23-7.55,5.65,15.61.76-11.74,10.28,18.38a2,2,0,0,0,1.82,1,2,2,0,0,0,1.82-1l10.29-18.38.76,11.74,5.65-15.61,5.22,7.55,4.59-7.65,5.23,13.27,2.41-12.47,19.85,36.45a2,2,0,0,0,3.43.08l7.27-12,3.25,13.18,5.77-12.71,6.18,8.77,2.22-5.52,11.38,20.54a2,2,0,1,0,3.46-1.92L368.92,79.76a2,2,0,0,0-1.69-1,2,2,0,0,0-1.73,1l-15.29,25.16-30.82-56.6a2,2,0,0,0-3.46,0L292.56,90,269.2,48.24a2,2,0,0,0-3.47,0l-30.81,56.6L219.63,79.69a2,2,0,0,0-1.73-1,2,2,0,0,0-1.69,1l-22.42,40.46A2,2,0,0,0,194.56,122.91ZM104.33,114l4.21,6.19L105,138.87l4.63.88,2.68-14.06,4.21,6.18-3.57,18.7,4.64.88,2.68-14.06,4.2,6.18-3.56,18.7,4.63.88,2.68-14.06,17.43,25.63q-3.6,3.3-7.06,6.75-4.94,4.93-9.51,10.13l-7.36-10.82,7.29,1.39.46-2.4-9.69-1.85-2.18-3.21,7.29,1.39.46-2.4-9.69-1.85-2.18-3.2,7.29,1.39.45-2.4-9.69-1.85-2.18-3.21,7.29,1.39.46-2.4-10.18-1.94h-.06a1.18,1.18,0,0,0-1.36,1h0l-1.94,10.19,2.4.46L107.3,164l2.18,3.2-1.85,9.69,2.4.46,1.39-7.29,2.18,3.21-1.84,9.69,2.4.46,1.39-7.29,2.18,3.2L115.88,189l2.4.46,1.39-7.29,7.79,11.28a215.77,215.77,0,0,0-17.65,23.5,33.83,33.83,0,0,1,14.48,3.22A204.14,204.14,0,0,1,276.48,132a17,17,0,0,1-2.08-8.18,17.3,17.3,0,0,1,.91-5.51,215.86,215.86,0,0,0-67.52,16.45q-7.72,3.27-15.11,7.08l-5.89-8.65,10.9,2.07.68-3.59L183.89,129l-3.26-4.79,10.9,2.08.68-3.59-14.49-2.77-3.26-4.79,10.9,2.08.69-3.59-14.49-2.76L168.3,106l10.9,2.08.69-3.59-15.24-2.9-.08,0a1.78,1.78,0,0,0-2,1.47h0l-2.9,15.23,3.59.68,2.08-10.89,3.26,4.79-2.77,14.49,3.59.68,2.08-10.9,3.26,4.8-2.76,14.49,3.59.68,2.07-10.9,3.26,4.8L178.1,145.5l3.59.68,2.08-10.9,5.65,8.32q-9.06,4.88-17.6,10.57l-4-5.85,9,1.72.56-3-12-2.28-2.7-4,9,1.72.57-3-12-2.28-2.69-4,9,1.72.56-3-12-2.29-2.69-4,9,1.72.57-3-12.59-2.4h-.07a1.47,1.47,0,0,0-1.69,1.21h0L145.38,136l3,.57,1.72-9,2.7,4-2.29,12,3,.57,1.72-9,2.69,4-2.28,12,3,.56,1.71-9,2.7,4-2.29,12,3,.57,1.72-9,4,5.84a218.33,218.33,0,0,0-20.16,15.69l-17.07-25.11,14.07,2.68.88-4.63-18.7-3.57-4.2-6.18,14.06,2.68.89-4.63-18.7-3.57-4.2-6.18,14.06,2.68.88-4.64-18.69-3.56-4.21-6.19L122.3,114l.88-4.64-19.65-3.74-.11,0a2.28,2.28,0,0,0-2.63,1.89h0L97,127.16l4.63.89Zm6.56,236.27a46.43,46.43,0,0,1-32.49,13.2c-30,0-45.39-21.07-45.68-45.39-.15-24.92,15.42-46.28,45.68-46.28A45.44,45.44,0,0,1,110.74,285l5.49-4.75A53.48,53.48,0,0,0,78.4,264.66c-35.6,0-53.69,26-53.4,53.7.15,28,18.4,52.5,53.4,52.5a53.48,53.48,0,0,0,37.83-15.57ZM331.57,230.4a6.63,6.63,0,1,0,7,6.25A6.64,6.64,0,0,0,331.57,230.4Zm.66,11.91a5.3,5.3,0,1,1,5-5.59A5.31,5.31,0,0,1,332.23,242.31ZM276.12,538.94s0,0,0,0c-81.47-6.52-149.59-61.09-175.95-135.28l-.52.26a199.68,199.68,0,0,1-6.16-20.69H79.39a214.71,214.71,0,0,0,11.88,37.07,217.61,217.61,0,0,0,185.8,132.52,17.08,17.08,0,0,1,.44-13.73ZM491.05,318c0-28.63-17.65-51.17-54.29-51.17h-44.5V370.7h44.5C474,370.7,491.05,346.67,491.05,318Zm-69.72-26.7h15.43c17.95,0,25.21,12.16,25.21,26.4s-6.52,28.19-25.21,28.19H421.33ZM351.05,430.08v3.53a1.31,1.31,0,0,1-1.31,1.3h-3.53a1.31,1.31,0,0,0-1.3,1.31h0a1.3,1.3,0,0,0,1.3,1.3h3.53a1.31,1.31,0,0,1,1.31,1.31v3.53a1.31,1.31,0,1,0,2.61,0v-3.53a1.31,1.31,0,0,1,1.3-1.31h3.53a1.31,1.31,0,0,0,1.31-1.3h0a1.31,1.31,0,0,0-1.31-1.31H355a1.3,1.3,0,0,1-1.3-1.3v-3.53a1.31,1.31,0,1,0-2.61,0Z"/></svg>